<svg width="24" height="24" viewBox="0 0 24 24" fill="none" xmlns="http://www.w3.org/2000/svg">
<rect width="24" height="24" rx="4" fill="#EBCF3C"/>
<path d="M11.9219 11.9297C10.6354 11.5599 9.69792 11.1068 9.10938 10.5703C8.52604 10.0286 8.23438 9.36198 8.23438 8.57031C8.23438 7.67448 8.59115 6.9349 9.30469 6.35156C10.0234 5.76302 10.9557 5.46875 12.1016 5.46875C12.8828 5.46875 13.5781 5.61979 14.1875 5.92188C14.8021 6.22396 15.276 6.64062 15.6094 7.17188C15.9479 7.70312 16.1172 8.28385 16.1172 8.91406H14.6094C14.6094 8.22656 14.3906 7.6875 13.9531 7.29688C13.5156 6.90104 12.8984 6.70312 12.1016 6.70312C11.362 6.70312 10.7839 6.86719 10.3672 7.19531C9.95573 7.51823 9.75 7.96875 9.75 8.54688C9.75 9.01042 9.94531 9.40365 10.3359 9.72656C10.7318 10.0443 11.401 10.3359 12.3438 10.6016C13.2917 10.8672 14.0312 11.1615 14.5625 11.4844C15.099 11.8021 15.4948 12.1745 15.75 12.6016C16.0104 13.0286 16.1406 13.5312 16.1406 14.1094C16.1406 15.0312 15.7812 15.7708 15.0625 16.3281C14.3438 16.8802 13.3828 17.1562 12.1797 17.1562C11.3984 17.1562 10.6693 17.0078 9.99219 16.7109C9.3151 16.4089 8.79167 15.9974 8.42188 15.4766C8.05729 14.9557 7.875 14.3646 7.875 13.7031H9.38281C9.38281 14.3906 9.63542 14.9349 10.1406 15.3359C10.651 15.7318 11.3307 15.9297 12.1797 15.9297C12.9714 15.9297 13.5781 15.7682 14 15.4453C14.4219 15.1224 14.6328 14.6823 14.6328 14.125C14.6328 13.5677 14.4375 13.138 14.0469 12.8359C13.6562 12.5286 12.9479 12.2266 11.9219 11.9297Z" fill="white"/>
</svg>
